<?xml version="1.0" encoding="UTF-8"?>
<svg width="25px" height="25px" viewBox="0 0 25 25" version="1.1" xmlns="http://www.w3.org/2000/svg" xmlns:xlink="http://www.w3.org/1999/xlink">
    <!-- Generator: Sketch 61.2 (89653) - https://sketch.com -->
    <title>GitHub</title>
    <desc>Created with Sketch.</desc>
    <g id="Page-1" stroke="none" stroke-width="1" fill="none" fill-rule="evenodd">
        <g id="GitHub" fill="#FFFFFF" fill-rule="nonzero">
            <g id="github-logo">
                <path d="M23.323209,6.35638588 C22.2054243,4.42886493 20.6892207,2.90284391 18.7741993,1.77797858 C16.8588928,0.653055873 14.7679491,0.0907379533 12.499886,0.0907379533 C10.2321079,0.0907379533 8.14048013,0.653227993 6.22557269,1.77797858 C4.31038021,2.90278654 2.79423367,4.42886493 1.67644899,6.35638588 C0.558835333,8.28384945 0,10.3886546 0,12.6707439 C0,15.412051 0.794671483,17.8771045 2.38441349,20.0665355 C3.97398449,22.2561388 6.02747488,23.7712588 8.54471367,24.6120678 C8.8377274,24.6668022 9.05463737,24.6283045 9.19567161,24.4975503 C9.33676285,24.3666239 9.40722296,24.2026503 9.40722296,24.0063181 C9.40722296,23.9735579 9.40442964,23.6788301 9.39901401,23.1217905 C9.39342737,22.564751 9.39080507,22.0787972 9.39080507,21.6641587 L9.01644297,21.7293351 C8.7777565,21.7733405 8.47664783,21.7919869 8.11311698,21.7867086 C7.74975715,21.7816023 7.37254473,21.7432768 6.98199277,21.6720189 C6.59126979,21.6013921 6.22785295,21.4375907 5.89145722,21.1809589 C5.55523252,20.9243271 5.31654604,20.5884051 5.1754548,20.1737093 L5.01270106,19.7967652 C4.90421757,19.5458134 4.73342591,19.2670355 4.50009805,18.9614641 C4.26677019,18.6556058 4.03082003,18.4482579 3.79213355,18.3390761 L3.67817743,18.2569746 C3.60224469,18.2024123 3.53178458,18.1366049 3.46662608,18.0602408 C3.40152458,17.9838766 3.35278397,17.9074551 3.32023323,17.8309188 C3.28762547,17.7543251 3.31464658,17.6915011 3.40158159,17.6422172 C3.4885166,17.5929334 3.64562668,17.5690086 3.87359593,17.5690086 L4.19898939,17.6179482 C4.41601337,17.6617242 4.68445727,17.7924785 5.00466314,18.0110143 C5.32469798,18.2293779 5.58778327,18.5132621 5.793976,18.8625521 C6.04366475,19.3104099 6.34448838,19.6516676 6.69730199,19.8864974 C7.04983058,20.1213273 7.40526649,20.2385414 7.76326771,20.2385414 C8.12126892,20.2385414 8.43047252,20.2112316 8.69099251,20.1568989 C8.95122747,20.1022793 9.19538657,20.0201777 9.42335582,19.9110533 C9.52100806,19.1790819 9.78688667,18.6167639 10.2207636,18.2236979 C9.60235642,18.1582921 9.04637142,18.0597818 8.55252357,17.928798 C8.05896075,17.7976421 7.54892303,17.5847863 7.02275246,17.2896569 C6.49629685,16.9949291 6.05956958,16.6289434 5.71245662,16.1923309 C5.36528665,15.7554889 5.08036785,15.1819831 4.85809926,14.47233 C4.63571666,13.76239 4.52449686,12.9434403 4.52449686,12.0152514 C4.52449686,10.6936523 4.95318621,9.56901642 5.81039389,8.64071278 C5.40883967,7.64711807 5.44674903,6.53326846 5.924236,5.29927868 C6.23891222,5.20088308 6.70556794,5.27472281 7.32397514,5.52033887 C7.94249634,5.76606968 8.39535647,5.97657314 8.68301159,6.15110341 C8.9706667,6.3255763 9.20114424,6.47342787 9.37478623,6.59333854 C10.3840874,6.30951171 11.4256543,6.16756961 12.499772,6.16756961 C13.5738896,6.16756961 14.6156846,6.30951171 15.6250428,6.59333854 L16.243507,6.20038726 C16.6664386,5.93819025 17.1658731,5.69790993 17.7406133,5.47948892 C18.3156955,5.26118266 18.7554441,5.2010552 19.0594031,5.2994508 C19.5474933,6.53349795 19.5909893,7.64729019 19.1893211,8.6408849 C20.0464717,9.56918854 20.4753321,10.6941112 20.4753321,12.0154235 C20.4753321,12.9436124 20.3637133,13.7651439 20.1416727,14.4805344 C19.9193471,15.1960396 19.631977,15.7689717 19.2794485,16.2005353 C18.9265208,16.6320416 18.4870002,16.9951586 17.9608297,17.2898291 C17.4345451,17.584729 16.9243363,17.7975848 16.4307735,17.9287406 C15.9369827,18.0598965 15.3809977,18.1584642 14.7625905,18.2239848 C15.3266134,18.7152169 15.6086819,19.4906201 15.6086819,20.5498501 L15.6086819,24.0058592 C15.6086819,24.2021914 15.6765197,24.3661075 15.8123093,24.4970913 C15.9479279,24.6278455 16.1621016,24.6663432 16.4551153,24.6115515 C18.9726961,23.7708572 21.0261865,22.2556798 22.6157005,20.0660766 C24.2050435,17.8766455 25,15.411592 25,12.6702849 C24.9994299,10.3884825 24.4403096,8.28384945 23.323209,6.35638588 Z" id="Shape"></path>
            </g>
        </g>
    </g>
</svg>