<?xml version="1.0" encoding="UTF-8"?>
<svg width="50px" height="75px" viewBox="0 0 157 231" version="1.1" xmlns="http://www.w3.org/2000/svg" xmlns:xlink="http://www.w3.org/1999/xlink">
    <!-- Generator: Sketch 61.2 (89653) - https://sketch.com -->
    <title>eclipse_incubation_vertical_svg</title>
    <desc>Created with Sketch.</desc>
    <g id="Page-1" stroke="none" stroke-width="1" fill="none" fill-rule="evenodd">
        <g id="eclipse_incubation_vertical_svg" fill-rule="nonzero">
            <g id="Group" transform="translate(17.000000, 214.000000)" fill="#FFFFFF">
                <polygon id="Path" points="0.75 0.34 1.92 0.34 1.92 16.03 0.75 16.03"></polygon>
                <polygon id="Path" points="5.62 0.34 6.72 0.34 17.55 13.99 17.55 0.34 18.67 0.34 18.67 16.03 17.8 16.03 6.75 2.09 6.75 16.03 5.63 16.03 5.63 0.34"></polygon>
                <path d="M21.86,8.23 L21.86,8.19 C21.86,3.75 25.18,0.08 29.71,0.08 C32.51,0.08 34.19,1.11 35.81,2.59 L34.98,3.44 C33.61,2.12 32.04,1.13 29.69,1.13 C25.92,1.13 23.08,4.2 23.08,8.15 L23.08,8.19 C23.08,12.16 25.97,15.25 29.71,15.25 C31.97,15.25 33.52,14.37 35.11,12.81 L35.89,13.57 C34.23,15.21 32.44,16.3 29.66,16.3 C25.18,16.3 21.86,12.74 21.86,8.23 Z" id="Path"></path>
                <path d="M38.4,9.51 L38.4,0.34 L39.57,0.34 L39.57,9.4 C39.57,13.1 41.57,15.23 44.88,15.23 C48.06,15.23 50.1,13.3 50.1,9.51 L50.1,0.34 L51.27,0.34 L51.27,9.37 C51.27,13.88 48.65,16.2700314 44.84,16.2700314 C41.07,16.28 38.4,13.9 38.4,9.51 Z" id="Path"></path>
                <path d="M54.02,0.34 L60.5,0.34 C62.27,0.34 63.71,0.86 64.58,1.73 C65.23,2.38 65.59,3.21 65.59,4.2 L65.59,4.24 C65.59,6.37 64.2,7.45 62.92,7.96 C64.8,8.45 66.46,9.53 66.46,11.7 L66.46,11.74 C66.46,14.36 64.22,16.02 60.83,16.02 L54.02,16.02 L54.02,0.34 L54.02,0.34 Z M64.4,4.31 C64.4,2.58 62.99,1.42 60.48,1.42 L55.19,1.42 L55.19,7.58 L60.37,7.58 C62.72,7.58 64.4,6.44 64.4,4.35 L64.4,4.31 Z M60.5,8.66 L55.19,8.66 L55.19,14.96 L60.88,14.96 C63.57,14.96 65.2700444,13.73 65.2700444,11.75 L65.2700444,11.71 C65.28,9.78 63.6,8.66 60.5,8.66 Z" id="Shape"></path>
                <path d="M76.28,0.23 L77.4,0.23 L84.71,16.03 L83.43,16.03 L81.44,11.64 L72.18,11.64 L70.19,16.03 L68.98,16.03 L76.28,0.23 Z M80.94,10.59 L76.82,1.51 L72.67,10.59 L80.94,10.59 Z" id="Shape"></path>
                <polygon id="Path" points="91.05 1.42 85.58 1.42 85.58 0.34 97.68 0.34 97.68 1.42 92.21 1.42 92.21 16.03 91.04 16.03 91.04 1.42"></polygon>
                <polygon id="Path" points="101.29 0.34 102.46 0.34 102.46 16.03 101.29 16.03"></polygon>
                <path d="M105.91,8.23 L105.91,8.19 C105.91,3.91 109.07,0.08 113.82,0.08 C118.57,0.08 121.69,3.87 121.69,8.15 L121.69,8.19 C121.69,12.47 118.53,16.3 113.78,16.3 C109.03,16.3 105.91,12.51 105.91,8.23 Z M120.48,8.23 L120.48,8.19 C120.48,4.31 117.66,1.13 113.78,1.13 C109.9,1.13 107.12,4.27 107.12,8.15 L107.12,8.19 C107.12,12.07 109.94,15.25 113.82,15.25 C117.7,15.25 120.48,12.11 120.48,8.23 Z" id="Shape"></path>
                <polygon id="Path" points="124.89 0.34 125.99 0.34 136.82 13.99 136.82 0.34 137.94 0.34 137.94 16.03 137.07 16.03 126.02 2.09 126.02 16.03 124.9 16.03 124.9 0.34"></polygon>
            </g>
            <path d="M56.66,166.23 C57.51,163.48 60.43,161.43 63.94,161.43 C65.14,161.43 66.25,161.69 67.25,162.11 C69.46,160.64 72.19,159.76 75.17,159.76 L75.19,159.76 C76.11,157.9 78.48,156.57 81.3,156.57 C82.04,156.57 82.75,156.67 83.42,156.84 C83.33,154.56 83.69,152.18 84.55,149.68 C85.55,146.79 87,144.03 88.52,141.28 C88.17,137.16 87.9,133.5 82.74,132 C80.82,131.44 78.82,131.27 76.86,131.04 L76.85,131.04 L76.85,131.03 C76.01,130.93 75.17,130.81 74.35,130.65 C60.18,145.41 40.2,109.97 40.2,109.97 C84.3,103.13 76.01,125.61 76.01,125.61 C72.81,124.05 71.93,122.08 69.49,119.73 C63.92,114.38 50.62,113.44 50.62,113.44 C66.54,117.51 68.71,125.22 74.97,127.69 C76.39,128.01 77.9,128.13 79.35,128.29 C82.15,128.59 84.89,129.11 87.22,130.61 C89.63,132.16 90.71,134.09 91.26,136.26 C93,132.94 94.5,129.56 95.07,125.92 C95.8,121.27 95.13,115.88 91.83,112.07 C88.78,108.55 84.66,105.89 81.4,102.52 C77.92,98.91 75.61,94.46 75.52,89.71 C73.76,85.86 70.9,81.39 68.28,79.65 C56.9,90.34 41.9,62.58 41.9,62.58 C76.88,57.7 71.1,75.67 71.1,75.67 C62.7,66.28 52.31,67.12 52.31,67.12 C60.71,69.79 67.34,75.15 71.2,78.83 L71.73,79.36 C73.3,81 74.9,82.75 76.24,84.63 C77.6,79.48 80.77,72.27 83.26,67.97 C83.26,67.97 91.66,53.15 105.8,43.9 C105.8,43.9 95.02,45.14 83.41,62.89 C83.41,62.89 67.99,38.7 117.83,34.23 C117.83,34.23 114.4,78.17 87.45,69.63 C82.77,76.67 79.7,84.74 80.33,90.42 C80.95,95.96 84.83,99.86 89.11,103.5 C90.25,97.66 94.46,92.63 100.65,89.89 C105.6,87.92 112.9,86.03 119.72,85.62 C119.72,85.62 106.39,82.58 96.25,89.51 C96.25,89.51 96.42,69.22 132.34,83.95 C132.34,83.95 106.34,110.29 97.99,94.59 C94.03,97.2 91.53,101.58 92.18,106.11 C94.5,108.14 96.66,110.33 97.97,113.03 C99.8,116.82 100.45,121.24 99.95,125.35 C98.99,133.25 94.05,139.97 90.67,147.14 C89.29,150.06 87.97,153.27 87.95,156.51 C89.64,156.04 91.47,155.78 93.39,155.78 C100.62,155.78 106.71,159.37 108.68,164.3 C111.61,164.61 113.92,166.33 114.34,168.51 C116.45,169.81 118.12,171.63 119.13,173.75 L50.55,173.75 C52.02,170.62 54.14,167.16 56.66,166.23" id="Path" fill="#F78D2C"></path>
            <g id="Group" transform="translate(17.000000, 182.000000)" fill="#FFFFFF">
                <polygon id="Path" points="0.54 1.39 18.54 1.39 18.54 5.21 4.8 5.21 4.8 11.52 16.97 11.52 16.97 15.33 4.8 15.33 4.8 21.85 18.71 21.85 18.71 25.67 0.54 25.67"></polygon>
                <path d="M21.55,13.6 L21.55,13.53 C21.55,6.63 26.72,0.97 34.07,0.97 C38.54,0.97 41.25,2.53 43.57,4.75 L40.83,7.91 C38.89,6.11 36.81,4.89 34.03,4.89 C29.42,4.89 26.02,8.71 26.02,13.46 L26.02,13.53 C26.02,18.28 29.38,22.13 34.03,22.13 C37.01,22.13 38.92,20.95 41,19.01 L43.74,21.78 C41.21,24.42 38.43,26.0800136 33.89,26.0800136 C26.83,26.09 21.55,20.57 21.55,13.6 Z" id="Path"></path>
                <polygon id="Path" points="47.22 1.39 51.49 1.39 51.49 21.78 64.25 21.78 64.25 25.66 47.22 25.66"></polygon>
                <polygon id="Path" points="67.93 1.39 72.2 1.39 72.2 25.67 67.93 25.67"></polygon>
                <path d="M77.67,1.39 L87.24,1.39 C92.93,1.39 96.47,4.62 96.47,9.51 L96.47,9.58 C96.47,15.03 92.1,17.87 86.76,17.87 L81.94,17.87 L81.94,25.67 L77.67,25.67 L77.67,1.39 Z M86.9,14.02 C90.13,14.02 92.14,12.22 92.14,9.68 L92.14,9.61 C92.14,6.77 90.09,5.28 86.9,5.28 L81.94,5.28 L81.94,14.02 L86.9,14.02 Z" id="Shape"></path>
                <path d="M98.21,22.13 L100.78,19.08 C103.1,21.09 105.46,22.24 108.45,22.24 C111.09,22.24 112.75,20.99 112.75,19.19 L112.75,19.12 C112.75,17.39 111.78,16.45 107.27,15.41 C102.1,14.16 99.19,12.64 99.19,8.16 L99.19,8.09 C99.19,3.93 102.66,1.05 107.48,1.05 C111.02,1.05 113.83,2.13 116.29,4.1 L114,7.33 C111.81,5.7 109.63,4.83 107.41,4.83 C104.91,4.83 103.46,6.11 103.46,7.71 L103.46,7.78 C103.46,9.65 104.57,10.49 109.25,11.6 C114.38,12.85 117.02,14.69 117.02,18.71 L117.02,18.78 C117.02,23.32 113.45,26.03 108.35,26.03 C104.62,26.02 101.12,24.73 98.21,22.13 Z" id="Path"></path>
                <polygon id="Path" points="120.99 1.39 138.99 1.39 138.99 5.21 125.26 5.21 125.26 11.52 137.43 11.52 137.43 15.33 125.26 15.33 125.26 21.85 139.17 21.85 139.17 25.67 121 25.67 121 1.39"></polygon>
            </g>
            <path d="M21.66,39.99 C41.26,9.42 80.5,-1.25 113.23,13.44 C112.51,12.94 111.78,12.43 111.03,11.95 C77.52,-9.54 32.98,0.11 11.56,33.52 C-9.87,66.92 -0.06,111.43 33.45,132.92 C34.2,133.4 34.96,133.85 35.72,134.3 C8.73,110.68 2.06,70.56 21.66,39.99" id="Path" fill="#F78D2C"></path>
        </g>
    </g>
</svg>