<svg width="25px" height="25px" xmlns="http://www.w3.org/2000/svg">
 <!-- Created with Method Draw - http://github.com/duopixel/Method-Draw/ -->

 <g>
  <title>background</title>
  <rect fill="none" id="canvas_background" height="26" width="26" y="-1" x="-1"/>
  <g display="none" overflow="visible" y="0" x="0" height="100%" width="100%" id="canvasGrid">
   <rect fill="url(#gridpattern)" stroke-width="0" y="1" x="1" height="22" width="22"/>
  </g>
 </g>
 <g>
  <title>Layer 1</title>
  <ellipse ry="11" rx="11" id="svg_1" cy="12" cx="12" stroke="#FFF" fill="#FFFFFF"/>
  <style transform="matrix(0.06518249557325362,0,0,0.06518249557325362,0,0) " type="text/css">.st0{fill:#434343;}</style>
  <g stroke="null" id="svg_19">
   <g stroke="null" transform="matrix(0.13015580851809486,0,0,0.13015580851809486,-6.849006450405499,-6.831507391021924) " id="svg_6">
    <g stroke="null" id="svg_7">
     <path stroke="null" id="svg_8" d="m110.298292,161.293011c0,7.1 -5.8,12.9 -12.9,12.9s-12.9,-5.8 -12.9,-12.9c0,-7.1 5.8,-12.9 12.9,-12.9l12.9,0l0,12.9z" class="st0"/>
     <path stroke="null" id="svg_9" d="m116.798292,161.293011c0,-7.1 5.8,-12.9 12.9,-12.9s12.9,5.8 12.9,12.9l0,32.3c0,7.1 -5.8,12.9 -12.9,12.9s-12.9,-5.8 -12.9,-12.9c0,0 0,-32.3 0,-32.3z" class="st0"/>
    </g>
    <g stroke="null" id="svg_10">
     <path stroke="null" id="svg_11" d="m129.698292,109.493011c-7.1,0 -12.9,-5.8 -12.9,-12.9s5.8,-12.9 12.9,-12.9s12.9,5.8 12.9,12.9l0,12.9l-12.9,0z" class="st0"/>
     <path stroke="null" id="svg_12" d="m129.698292,115.993011c7.1,0 12.9,5.8 12.9,12.9s-5.8,12.9 -12.9,12.9l-32.3,0c-7.1,0 -12.9,-5.8 -12.9,-12.9s5.8,-12.9 12.9,-12.9c0,0 32.3,0 32.3,0z" class="st0"/>
    </g>
    <g stroke="null" id="svg_13">
     <path stroke="null" id="svg_14" d="m181.498292,128.893011c0,-7.1 5.8,-12.9 12.9,-12.9c7.1,0 12.9,5.8 12.9,12.9s-5.8,12.9 -12.9,12.9l-12.9,0l0,-12.9z" class="st0"/>
     <path stroke="null" id="svg_15" d="m174.998292,128.893011c0,7.1 -5.8,12.9 -12.9,12.9c-7.1,0 -12.9,-5.8 -12.9,-12.9l0,-32.3c0,-7.1 5.8,-12.9 12.9,-12.9c7.1,0 12.9,5.8 12.9,12.9l0,32.3z" class="st0"/>
    </g>
    <g stroke="null" id="svg_16">
     <path stroke="null" id="svg_17" d="m162.098292,180.693011c7.1,0 12.9,5.8 12.9,12.9c0,7.1 -5.8,12.9 -12.9,12.9c-7.1,0 -12.9,-5.8 -12.9,-12.9l0,-12.9l12.9,0z" class="st0"/>
     <path stroke="null" id="svg_18" d="m162.098292,174.193011c-7.1,0 -12.9,-5.8 -12.9,-12.9c0,-7.1 5.8,-12.9 12.9,-12.9l32.3,0c7.1,0 12.9,5.8 12.9,12.9c0,7.1 -5.8,12.9 -12.9,12.9l-32.3,0z" class="st0"/>
    </g>
   </g>
  </g>
 </g>
</svg>