<?xml version="1.0" encoding="UTF-8"?>
<svg width="24px" height="24px" viewBox="0 0 65 70" version="1.1" xmlns="http://www.w3.org/2000/svg" xmlns:xlink="http://www.w3.org/1999/xlink">
    <!-- Generator: Sketch 61.2 (89653) - https://sketch.com -->
    <title>stackoverflow-logo</title>
    <desc>Created with Sketch.</desc>
    <g id="Page-1" stroke="none" stroke-width="1" fill="#FFFFFF" fill-rule="evenodd">
        <g id="stackoverflow-logo" fill-rule="nonzero">
            <polygon id="Path" fill="#FFFFFF" points="54.2417266 63.7702265 54.2417266 45 61 45 61 70 0 70 0 45 6.75827338 45 6.75827338 63.7702265"></polygon>
            <path d="M14.7071057,43.6427567 L48.117851,50.0872011 L49.5320624,43.8874824 L16.1213172,37.443038 L14.7071057,43.6427567 L14.7071057,43.6427567 Z M19.1265165,28.9592124 L50.0623917,42.2559775 L52.8908146,36.5457103 L21.9549393,23.1673699 L19.1265165,28.9592124 Z M27.7001733,14.92827 L53.9514731,35.0773558 L58.2824957,30.2644163 L32.0311958,10.1153305 L27.7001733,14.92827 L27.7001733,14.92827 Z M44.6707106,0 L39.1906412,3.75246132 L59.5199307,29.0407876 L65,25.2883263 L44.6707106,0 Z M14,58 L48.117851,58 L48.117851,51.718706 L14,51.718706 L14,58 Z" id="Shape" fill="#FFFFFF"></path>
        </g>
    </g>
</svg>


