<?xml version="1.0" encoding="UTF-8"?>
<svg width="25px" height="25px" viewBox="0 0 25 25" version="1.1" xmlns="http://www.w3.org/2000/svg" xmlns:xlink="http://www.w3.org/1999/xlink">
    <!-- Generator: Sketch 61.2 (89653) - https://sketch.com -->
    <title>Twitter</title>
    <desc>Created with Sketch.</desc>
    <g id="Page-1" stroke="none" stroke-width="1" fill="none" fill-rule="evenodd">
        <g id="Twitter" fill-rule="nonzero">
            <g id="twitter" transform="translate(0.000000, 0.298879)">
                <ellipse id="Oval-path" fill="#434343" cx="12.5002212" cy="12.2727273" rx="12.5" ry="12.2727273"></ellipse>
                <path d="M12.5002212,0 C19.4037806,0 25.0002212,5.49468716 25.0002212,12.2727273 C25.0002212,19.0507674 19.4037806,24.5454545 12.5002212,24.5454545 C5.59666187,24.5454545 0.000221238938,19.0507674 0.000221238938,12.2727273 C0.000221238938,5.49468716 5.59666187,0 12.5002212,0 Z M15.1034333,6.81818182 C13.4653802,6.81818182 12.1368404,8.09212411 12.1368404,9.66285996 C12.1368404,9.88582638 12.1631678,10.1028527 12.2140528,10.311181 C9.74856604,10.1925908 7.5625041,9.06015054 6.09922976,7.33857823 C5.84392003,7.75862915 5.69745985,8.24762781 5.69745985,8.76887281 C5.69745985,9.75556817 6.22157489,10.6266434 7.01715011,11.1366447 C6.53108817,11.1220065 6.0733448,10.9940819 5.67356604,10.78045 L5.6733448,10.8165149 L5.6733448,10.8165149 C5.6733448,12.1948335 6.69635365,13.3444577 8.05321206,13.6056106 C7.8045395,13.6709519 7.54192888,13.7055318 7.27179613,13.7055318 C7.08020321,13.7055318 6.89458374,13.6879236 6.71361029,13.6548287 C7.09104392,14.7847232 8.1863979,15.6072169 9.48484923,15.6303409 C8.4693625,16.3934334 7.1903802,16.8480642 5.80011472,16.8480642 C5.56117666,16.8480642 5.324451,16.834699 5.09281383,16.8081806 C6.40498197,17.6156118 7.96471649,18.0863658 9.63993773,18.0863658 C15.0965749,18.0863658 18.0806457,13.7517798 18.0806457,9.99232414 C18.0806457,9.86906677 18.0777696,9.7462337 18.0720174,9.62446137 C18.6521059,9.22350368 19.154982,8.72262478 19.5525483,8.15216169 C19.0206899,8.37831032 18.448566,8.53126825 17.848566,8.59957956 C18.4611767,8.24762781 18.9313094,7.69074213 19.1532121,7.02608581 C18.579982,7.35215563 17.944805,7.58869946 17.2693625,7.71619976 C16.7282121,7.16355702 15.9571944,6.81818182 15.1034333,6.81818182 Z" id="Combined-Shape" fill="#FFFFFF"></path>
            </g>
        </g>
    </g>
</svg>